<svg version="1.1" id="Layer_1" xmlns="http://www.w3.org/2000/svg" xmlns:xlink="http://www.w3.org/1999/xlink" x="0px" y="0px"
	 width="100%" viewBox="0 0 512 512" enable-background="new 0 0 512 512" xml:space="preserve">
<path fill="#020202" opacity="1.000000" stroke="none" 
	d="
M240.000000,513.000000 
	C160.019394,513.000000 80.538788,513.000000 1.029092,513.000000 
	C1.029092,342.394379 1.029092,171.788727 1.029092,1.091547 
	C171.563965,1.091547 342.127991,1.091547 512.846008,1.091547 
	C512.846008,171.666565 512.846008,342.333252 512.846008,513.000000 
	C422.122040,513.000000 331.311005,513.000000 240.000000,513.000000 
M139.470978,371.097961 
	C138.993423,367.354645 140.690430,366.129364 144.355743,366.166290 
	C145.846771,366.181335 148.728088,364.415497 148.643631,363.761047 
	C147.680389,356.297272 152.432266,356.615051 157.358475,356.897278 
	C159.185669,357.001953 161.038849,357.066193 162.853683,356.884369 
	C166.254852,356.543518 167.956558,357.771606 167.468964,361.344727 
	C166.924103,365.337616 168.682922,366.669495 172.603775,366.453217 
	C173.874725,366.383118 176.464569,368.164581 176.371399,368.788544 
	C175.276627,376.119507 179.825165,376.025116 184.817276,375.650330 
	C186.640182,375.513489 188.492035,375.503876 190.312897,375.653107 
	C193.882614,375.945709 196.224762,375.179291 195.561783,370.822357 
	C195.096039,367.761780 196.348816,365.926544 199.713196,366.326111 
	C203.580215,366.785278 205.367462,365.291931 204.891113,361.286774 
	C204.510818,358.089081 206.004196,356.493927 209.229004,356.941437 
	C213.364395,357.515289 214.657043,355.575470 214.191177,351.784760 
	C213.794357,348.555756 215.259903,346.998901 218.497391,347.478455 
	C222.740829,348.107056 223.520889,345.975403 223.503906,342.277863 
	C223.497696,340.923370 225.520416,338.299774 226.353119,338.402344 
	C232.505432,339.160126 233.354874,335.907562 232.796570,331.000824 
	C232.553223,328.862030 232.612076,326.660950 232.787155,324.508789 
	C233.079453,320.915680 231.794449,319.485016 227.979599,319.466614 
	C224.204330,319.448425 222.727844,320.719879 223.202011,324.397003 
	C223.643616,327.821594 222.239441,329.437775 218.687897,328.944855 
	C215.285278,328.472656 213.576294,329.840118 214.073349,333.396851 
	C214.605698,337.206146 212.896835,338.241089 209.236694,338.150421 
	C200.076614,337.923615 190.904694,337.953796 181.742691,338.137817 
	C178.262848,338.207703 176.228180,337.469940 176.740189,333.505402 
	C177.169159,330.183929 175.944290,328.393829 172.294128,328.929230 
	C168.911972,329.425323 167.549927,328.063293 167.556854,324.495453 
	C167.641693,280.833557 167.631104,237.171402 167.579987,193.509399 
	C167.576355,190.406494 168.523163,188.594254 171.864075,189.089981 
	C176.065338,189.713333 176.956131,187.679489 176.923721,183.929352 
	C176.912048,182.578430 178.932831,179.949966 179.759232,180.052658 
	C185.941940,180.820770 186.703491,177.522385 186.196411,172.632767 
	C185.922806,169.994553 186.541321,167.217682 185.982376,164.673645 
	C185.680084,163.297745 183.917480,161.569199 182.519470,161.236679 
	C178.674789,160.322189 175.926422,161.407776 176.563080,166.286011 
	C176.722824,167.510071 176.281281,168.812592 176.123398,170.022858 
	C175.297195,170.184082 174.804794,170.404663 174.344543,170.350769 
	C169.597260,169.794830 166.504562,170.802917 167.401093,176.663666 
	C167.924637,180.085953 165.106384,179.684006 163.007950,179.657883 
	C160.964050,179.632446 158.044067,180.274292 158.388489,176.847092 
	C158.883804,171.918320 157.343643,169.663742 152.083878,170.231049 
	C151.149979,170.331787 149.005264,168.307785 149.108856,167.475082 
	C149.883713,161.246887 146.417084,160.583466 141.587616,161.053314 
	C139.111267,161.294250 136.584900,161.217529 134.094391,161.066162 
	C131.035110,160.880219 129.671860,162.236176 130.078735,165.190521 
	C130.662521,169.429428 128.850037,170.742172 124.744179,170.567123 
	C123.449776,170.511948 121.106178,172.258087 120.890823,173.472137 
	C119.665390,180.380661 119.035912,180.904663 111.912468,178.703735 
	C111.840233,177.477066 111.618416,176.159500 111.715126,174.865768 
	C111.949226,171.734268 110.804619,169.960602 107.466408,170.420059 
	C103.156136,171.013275 101.779961,169.036270 102.274963,165.017395 
	C102.655075,161.931198 101.012856,160.708389 98.095055,161.110336 
	C94.234482,161.642166 92.405907,160.205719 92.910881,156.167343 
	C93.339630,152.738647 91.864922,151.162643 88.339378,151.664886 
	C84.487976,152.213562 83.181335,150.255310 83.625961,146.714966 
	C84.067635,143.198196 82.544083,142.140747 79.074409,142.189316 
	C66.578194,142.364334 54.077106,142.339203 41.579922,142.201904 
	C38.190769,142.164688 36.460411,143.216568 36.890751,146.760880 
	C37.334969,150.419495 35.841499,152.124451 32.097778,151.675156 
	C28.620192,151.257797 27.219282,152.809845 27.475241,156.275528 
	C27.649761,158.638550 27.691576,161.488922 24.153461,161.021805 
	C18.635475,160.293289 17.601883,163.038361 18.068203,167.689453 
	C18.349432,170.494400 18.276291,173.360886 18.083843,176.180710 
	C17.846243,179.662140 19.941450,179.946289 22.525051,179.839844 
	C24.968819,179.739166 28.085749,180.355042 27.603857,176.358337 
	C27.037054,171.657379 28.945011,169.930954 33.498940,170.453018 
	C34.540733,170.572449 35.655960,170.051376 37.009941,169.768051 
	C37.009941,168.368347 37.116737,167.205551 36.990334,166.068680 
	C36.576828,162.349670 38.205902,161.159348 41.876564,161.112213 
	C45.626064,161.064056 46.647202,162.716019 46.197681,165.941071 
	C45.638275,169.954437 47.731853,170.932449 51.175545,170.511353 
	C54.395912,170.117554 55.963024,171.481766 55.482162,174.758713 
	C54.895031,178.759827 56.606968,180.306747 60.513409,179.851288 
	C63.646385,179.486008 65.325668,180.775513 64.889656,184.105225 
	C64.411377,187.757751 65.884995,189.487732 69.629974,189.064850 
	C73.196762,188.662079 74.539719,190.411682 74.124939,193.767014 
	C73.641312,197.679169 75.649170,198.844696 79.143990,198.445877 
	C82.366356,198.078140 83.895462,199.476791 83.459274,202.725906 
	C82.928596,206.678940 84.551636,208.388321 88.511131,207.789658 
	C92.331680,207.212006 92.773087,209.367371 92.883499,212.510529 
	C93.007072,216.028442 91.831764,217.183517 88.313133,217.050308 
	C81.823135,216.804550 75.317162,216.980347 68.817848,216.980377 
	C55.381512,216.980423 55.518974,216.981430 55.416607,230.263565 
	C55.385361,234.317169 56.477234,235.878983 60.751076,235.750549 
	C70.074974,235.470413 79.414574,235.587524 88.743904,235.755905 
	C90.056442,235.779602 92.430283,236.939056 92.474892,237.683014 
	C92.797829,243.068420 92.648216,248.482162 92.648216,254.237213 
	C84.369652,254.237213 76.898720,254.237213 69.427788,254.237213 
	C55.153465,254.237213 55.287777,254.236038 55.411880,268.449036 
	C55.445927,272.348175 56.950756,273.236816 60.476540,273.169250 
	C69.638855,272.993622 78.810722,273.267639 87.970612,273.037445 
	C91.709602,272.943451 92.902565,274.206207 92.853279,277.886108 
	C92.688126,290.215912 92.896744,302.550720 92.729599,314.880493 
	C92.679955,318.542877 93.809746,319.881561 97.588326,319.781769 
	C106.414566,319.548706 115.261543,319.452454 124.079453,319.810211 
	C128.912750,320.006348 130.290146,318.478058 130.268280,313.637268 
	C130.085938,273.308990 130.164658,232.979538 130.164566,192.650452 
	C130.164536,179.731781 130.166016,179.881454 143.079147,179.755005 
	C147.313492,179.713562 148.870270,180.805496 148.856598,185.335236 
	C148.708084,234.496292 148.717178,283.658081 148.847824,332.819244 
	C148.859009,337.028931 147.525742,338.189941 143.429703,338.156311 
	C122.266685,337.982635 101.100800,338.163788 79.937637,337.999908 
	C75.864967,337.968384 73.414795,338.647369 74.115898,343.387329 
	C74.579529,346.521912 72.862770,347.663605 69.989166,347.322723 
	C66.004051,346.849915 64.713364,348.611664 64.745369,352.488098 
	C64.756973,353.894653 62.813824,356.616730 62.013512,356.525940 
	C55.355537,355.770874 55.086193,359.716278 55.470322,364.520416 
	C55.642448,366.673157 55.666321,368.866516 55.464333,371.013885 
	C55.140343,374.458221 56.436550,375.807159 59.972763,375.699890 
	C63.144360,375.603668 65.737518,375.519928 65.120224,371.244019 
	C64.600121,367.641327 66.089439,365.906799 69.877640,366.286743 
	C72.235153,366.523163 74.580444,366.094604 74.198799,363.013397 
	C73.520348,357.535828 76.288010,356.384430 80.954063,356.872406 
	C83.261917,357.113770 85.636780,357.112640 87.944183,356.869202 
	C91.657402,356.477478 93.250771,357.904053 92.800446,361.637848 
	C92.405815,364.909790 93.503250,366.870972 97.198456,366.302704 
	C101.362900,365.662262 102.561790,367.768768 102.160011,371.505127 
	C101.889374,374.021820 102.593575,375.662018 105.624199,375.640045 
	C115.789169,375.566223 125.955460,375.570923 136.120316,375.656250 
	C138.809082,375.678802 139.705139,374.451050 139.470978,371.097961 
M475.071594,303.500671 
	C475.071869,288.838409 475.167053,274.175110 475.007446,259.514587 
	C474.966156,255.722214 476.012512,254.254425 480.066315,254.239685 
	C494.661926,254.186630 494.584442,254.051529 493.855560,239.506805 
	C493.703613,236.474335 492.628723,235.349182 489.650757,235.496216 
	C486.326660,235.660309 482.976929,235.356888 479.658569,235.570709 
	C476.179138,235.794861 474.668762,234.451385 475.067780,230.970718 
	C475.448975,227.644989 474.230072,225.816589 470.601501,226.314987 
	C466.828217,226.833298 465.371704,225.093140 465.846832,221.448303 
	C466.306061,217.925278 464.714233,216.851578 461.256165,216.924973 
	C451.929718,217.122894 442.594147,217.109634 433.266846,216.933456 
	C429.761047,216.867233 427.739563,217.695755 428.303070,221.620483 
	C428.852844,225.449799 427.016296,226.487991 423.414429,226.474167 
	C421.969238,226.468597 419.185547,228.350662 419.276520,229.097839 
	C420.105194,235.906815 415.895569,235.842392 411.242401,235.550369 
	C409.250793,235.425385 407.235168,235.402634 405.247620,235.555893 
	C401.883240,235.815292 400.161499,234.619690 400.593933,231.020599 
	C400.992249,227.705475 399.726868,225.823410 396.120789,226.326965 
	C392.001495,226.902161 390.727509,224.913986 391.210632,221.140594 
	C391.640625,217.782349 389.956116,216.845871 386.795532,216.937698 
	C380.469360,217.121460 374.128906,217.147079 367.804657,216.932648 
	C364.285217,216.813339 362.835175,218.103455 363.275635,221.563049 
	C363.698608,224.885147 362.499146,226.766449 358.886353,226.305283 
	C354.855225,225.790710 353.408813,227.644958 353.849365,231.482941 
	C354.198822,234.527893 352.650940,235.858597 349.722351,235.507812 
	C345.464874,234.997864 344.352081,236.955078 344.368835,240.986145 
	C344.423706,254.198608 344.292816,254.362732 357.679138,254.233826 
	C362.067383,254.191574 363.395966,255.569748 363.363312,259.946167 
	C363.181854,284.271118 363.175140,308.598907 363.369965,332.923645 
	C363.404388,337.223999 361.935608,338.200745 357.922577,338.172333 
	C344.080048,338.074188 344.171387,338.209656 344.381836,352.236481 
	C344.432465,355.611053 345.363983,357.041718 348.940948,356.971954 
	C353.384796,356.885254 359.665802,355.684326 361.805969,358.025116 
	C364.231232,360.677673 363.186218,366.718628 363.199860,371.287720 
	C363.209503,374.540314 364.318848,375.737640 367.563324,375.658142 
	C374.057526,375.498932 380.562958,375.467346 387.054596,375.672699 
	C390.416809,375.779053 391.627930,374.470245 391.222687,371.283875 
	C390.770935,367.731567 392.096375,365.802917 395.925751,366.302887 
	C399.847656,366.815002 400.665649,364.765930 400.761993,361.296143 
	C400.802734,359.828247 402.661255,357.087311 403.452271,357.172241 
	C410.033356,357.878815 410.406982,354.035004 409.974335,349.206055 
	C409.796631,347.222534 409.776337,345.192413 409.980804,343.214142 
	C410.374695,339.402649 409.107239,337.489624 404.996002,338.065521 
	C401.845856,338.506775 400.547943,337.146759 400.559753,333.836548 
	C400.649597,308.677521 400.640137,283.517883 400.570190,258.358734 
	C400.561707,255.313736 401.750122,254.258972 404.715881,254.290848 
	C414.378601,254.394684 424.043457,254.370361 433.706848,254.303879 
	C436.350739,254.285690 437.739716,255.147934 437.735321,258.016754 
	C437.696106,283.509277 437.760590,309.002289 437.564392,334.493347 
	C437.555115,335.697815 435.490845,337.743958 434.187317,337.916687 
	C430.584686,338.394073 426.873383,338.198608 423.213745,338.052307 
	C420.336060,337.937256 418.831970,338.799255 418.979370,341.975494 
	C419.149109,345.633240 419.156738,349.311646 418.977051,352.968445 
	C418.820831,356.147339 420.326874,357.043793 423.196564,356.927002 
	C426.357056,356.798401 429.543335,357.103027 432.688507,356.849121 
	C436.746094,356.521576 438.048035,358.307220 437.764496,362.124878 
	C437.542999,365.107452 437.926788,368.137268 437.672119,371.114471 
	C437.362457,374.733856 438.954376,375.750519 442.314178,375.661072 
	C448.641205,375.492706 454.981567,375.452332 461.305115,375.676239 
	C464.765594,375.798767 466.319824,374.687531 465.855927,371.146759 
	C465.379944,367.513397 466.886078,365.781616 470.650635,366.296051 
	C473.883209,366.737793 475.405029,365.298737 475.059509,362.069733 
	C474.643921,358.185486 476.220856,356.468658 480.182678,356.874115 
	C482.612946,357.122864 484.756561,356.468079 484.391205,353.448151 
	C483.786835,348.452545 486.047302,346.967529 490.700409,347.363678 
	C494.389343,347.677704 493.748505,344.721313 493.792786,342.460815 
	C493.836914,340.208832 493.906250,337.995728 490.600037,338.078003 
	C486.936859,338.169159 483.258240,337.908844 479.607025,338.135132 
	C476.068268,338.354401 474.955322,336.935883 475.014709,333.491302 
	C475.181274,323.830292 475.071777,314.164581 475.071594,303.500671 
M307.376678,277.500366 
	C307.376831,271.503662 307.564758,265.498901 307.309418,259.513123 
	C307.145813,255.677856 308.256866,253.917419 312.353241,254.267548 
	C315.660461,254.550217 319.012878,254.259598 322.342346,254.341507 
	C324.763214,254.401047 326.072906,253.659668 325.963409,250.933014 
	C325.809784,247.107941 325.823578,243.268631 325.955383,239.441940 
	C326.064148,236.284958 324.486633,235.401917 321.643951,235.505737 
	C318.316986,235.627228 314.978455,235.433990 311.651581,235.556946 
	C308.843536,235.660706 306.955139,234.888641 307.402130,231.681137 
	C308.051544,227.020905 305.769226,225.961777 301.608643,226.158035 
	C300.456696,226.212372 298.083862,224.187988 298.192505,223.373749 
	C299.014496,217.214737 295.736816,216.399323 290.836151,216.950378 
	C288.533112,217.209351 286.164368,217.150162 283.847931,216.960449 
	C280.419891,216.679672 278.772522,217.965271 279.243225,221.501892 
	C279.739899,225.234070 278.077057,226.424377 274.412720,226.496582 
	C272.867096,226.527054 269.962524,228.591309 270.057526,229.475052 
	C270.723206,235.667923 267.069611,235.863800 262.659729,235.556824 
	C260.670471,235.418350 258.641418,235.723526 256.669220,235.494110 
	C252.469925,235.005661 251.229218,236.771805 251.244781,240.882477 
	C251.295197,254.200409 251.156403,254.343018 264.395599,254.239075 
	C268.456665,254.207169 269.920349,255.312134 269.890594,259.564484 
	C269.719177,284.049957 269.734222,308.537628 269.881592,333.023407 
	C269.904907,336.894104 268.845612,338.201630 264.828094,338.182770 
	C251.036499,338.117950 251.169205,338.266968 251.241531,352.171967 
	C251.261459,356.004303 252.626312,357.182892 256.225372,356.942932 
	C259.541992,356.721832 262.936890,356.563568 266.191864,357.063782 
	C267.534943,357.270172 269.425110,359.140259 269.632538,360.476288 
	C270.137695,363.730011 270.030060,367.133087 269.749756,370.440460 
	C269.420929,374.320648 270.735809,375.849518 274.761169,375.676270 
	C280.913055,375.411530 287.094025,375.405182 293.244629,375.685089 
	C296.996979,375.855896 298.512909,374.611633 298.014221,370.873474 
	C297.560730,367.474304 298.989868,365.791016 302.535736,366.296936 
	C306.287445,366.832153 307.780029,365.156006 307.386536,361.489624 
	C307.059387,358.441193 308.191864,356.531403 311.548706,356.924377 
	C315.893890,357.433044 317.208954,355.338135 316.789734,351.374084 
	C316.503387,348.666229 317.836975,347.178101 320.582672,347.474304 
	C324.639404,347.912018 326.135498,346.476105 326.056000,342.195251 
	C325.963654,337.223236 322.787659,338.148651 319.903137,338.098053 
	C317.571808,338.057159 315.212738,337.865509 312.912750,338.136993 
	C308.446198,338.664246 307.235748,336.808929 307.287262,332.469910 
	C307.500671,314.482239 307.376556,296.490601 307.376678,277.500366 
M301.124847,151.682480 
	C292.308319,151.683609 283.489136,151.811874 274.676575,151.625595 
	C270.956329,151.546967 269.680359,152.947540 269.743073,156.591888 
	C269.903381,165.904694 269.939148,175.225311 269.727142,184.536026 
	C269.644409,188.169357 271.094208,189.100189 274.427155,189.050400 
	C283.906921,188.908707 293.392242,188.890686 302.871033,189.062851 
	C306.388641,189.126740 307.511078,187.828400 307.445648,184.389465 
	C307.271545,175.243576 307.212128,166.087326 307.465912,156.945145 
	C307.581909,152.767136 306.151398,151.050232 301.124847,151.682480 
z"/>
<path fill="#F4F4F4" opacity="1.000000" stroke="none" 
	d="
M139.468323,371.545410 
	C139.705139,374.451050 138.809082,375.678802 136.120316,375.656250 
	C125.955460,375.570923 115.789169,375.566223 105.624199,375.640045 
	C102.593575,375.662018 101.889374,374.021820 102.160011,371.505127 
	C102.561790,367.768768 101.362900,365.662262 97.198456,366.302704 
	C93.503250,366.870972 92.405815,364.909790 92.800446,361.637848 
	C93.250771,357.904053 91.657402,356.477478 87.944183,356.869202 
	C85.636780,357.112640 83.261917,357.113770 80.954063,356.872406 
	C76.288010,356.384430 73.520348,357.535828 74.198799,363.013397 
	C74.580444,366.094604 72.235153,366.523163 69.877640,366.286743 
	C66.089439,365.906799 64.600121,367.641327 65.120224,371.244019 
	C65.737518,375.519928 63.144360,375.603668 59.972763,375.699890 
	C56.436550,375.807159 55.140343,374.458221 55.464333,371.013885 
	C55.666321,368.866516 55.642448,366.673157 55.470322,364.520416 
	C55.086193,359.716278 55.355537,355.770874 62.013512,356.525940 
	C62.813824,356.616730 64.756973,353.894653 64.745369,352.488098 
	C64.713364,348.611664 66.004051,346.849915 69.989166,347.322723 
	C72.862770,347.663605 74.579529,346.521912 74.115898,343.387329 
	C73.414795,338.647369 75.864967,337.968384 79.937637,337.999908 
	C101.100800,338.163788 122.266685,337.982635 143.429703,338.156311 
	C147.525742,338.189941 148.859009,337.028931 148.847824,332.819244 
	C148.717178,283.658081 148.708084,234.496292 148.856598,185.335236 
	C148.870270,180.805496 147.313492,179.713562 143.079147,179.755005 
	C130.166016,179.881454 130.164536,179.731781 130.164566,192.650452 
	C130.164658,232.979538 130.085938,273.308990 130.268280,313.637268 
	C130.290146,318.478058 128.912750,320.006348 124.079453,319.810211 
	C115.261543,319.452454 106.414566,319.548706 97.588326,319.781769 
	C93.809746,319.881561 92.679955,318.542877 92.729599,314.880493 
	C92.896744,302.550720 92.688126,290.215912 92.853279,277.886108 
	C92.902565,274.206207 91.709602,272.943451 87.970612,273.037445 
	C78.810722,273.267639 69.638855,272.993622 60.476540,273.169250 
	C56.950756,273.236816 55.445927,272.348175 55.411880,268.449036 
	C55.287777,254.236038 55.153465,254.237213 69.427788,254.237213 
	C76.898720,254.237213 84.369652,254.237213 92.648216,254.237213 
	C92.648216,248.482162 92.797829,243.068420 92.474892,237.683014 
	C92.430283,236.939056 90.056442,235.779602 88.743904,235.755905 
	C79.414574,235.587524 70.074974,235.470413 60.751076,235.750549 
	C56.477234,235.878983 55.385361,234.317169 55.416607,230.263565 
	C55.518974,216.981430 55.381512,216.980423 68.817848,216.980377 
	C75.317162,216.980347 81.823135,216.804550 88.313133,217.050308 
	C91.831764,217.183517 93.007072,216.028442 92.883499,212.510529 
	C92.773087,209.367371 92.331680,207.212006 88.511131,207.789658 
	C84.551636,208.388321 82.928596,206.678940 83.459274,202.725906 
	C83.895462,199.476791 82.366356,198.078140 79.143990,198.445877 
	C75.649170,198.844696 73.641312,197.679169 74.124939,193.767014 
	C74.539719,190.411682 73.196762,188.662079 69.629974,189.064850 
	C65.884995,189.487732 64.411377,187.757751 64.889656,184.105225 
	C65.325668,180.775513 63.646385,179.486008 60.513409,179.851288 
	C56.606968,180.306747 54.895031,178.759827 55.482162,174.758713 
	C55.963024,171.481766 54.395912,170.117554 51.175545,170.511353 
	C47.731853,170.932449 45.638275,169.954437 46.197681,165.941071 
	C46.647202,162.716019 45.626064,161.064056 41.876564,161.112213 
	C38.205902,161.159348 36.576828,162.349670 36.990334,166.068680 
	C37.116737,167.205551 37.009941,168.368347 37.009941,169.768051 
	C35.655960,170.051376 34.540733,170.572449 33.498940,170.453018 
	C28.945011,169.930954 27.037054,171.657379 27.603857,176.358337 
	C28.085749,180.355042 24.968819,179.739166 22.525051,179.839844 
	C19.941450,179.946289 17.846243,179.662140 18.083843,176.180710 
	C18.276291,173.360886 18.349432,170.494400 18.068203,167.689453 
	C17.601883,163.038361 18.635475,160.293289 24.153461,161.021805 
	C27.691576,161.488922 27.649761,158.638550 27.475241,156.275528 
	C27.219282,152.809845 28.620192,151.257797 32.097778,151.675156 
	C35.841499,152.124451 37.334969,150.419495 36.890751,146.760880 
	C36.460411,143.216568 38.190769,142.164688 41.579922,142.201904 
	C54.077106,142.339203 66.578194,142.364334 79.074409,142.189316 
	C82.544083,142.140747 84.067635,143.198196 83.625961,146.714966 
	C83.181335,150.255310 84.487976,152.213562 88.339378,151.664886 
	C91.864922,151.162643 93.339630,152.738647 92.910881,156.167343 
	C92.405907,160.205719 94.234482,161.642166 98.095055,161.110336 
	C101.012856,160.708389 102.655075,161.931198 102.274963,165.017395 
	C101.779961,169.036270 103.156136,171.013275 107.466408,170.420059 
	C110.804619,169.960602 111.949226,171.734268 111.715126,174.865768 
	C111.618416,176.159500 111.840233,177.477066 111.912468,178.703735 
	C119.035912,180.904663 119.665390,180.380661 120.890823,173.472137 
	C121.106178,172.258087 123.449776,170.511948 124.744179,170.567123 
	C128.850037,170.742172 130.662521,169.429428 130.078735,165.190521 
	C129.671860,162.236176 131.035110,160.880219 134.094391,161.066162 
	C136.584900,161.217529 139.111267,161.294250 141.587616,161.053314 
	C146.417084,160.583466 149.883713,161.246887 149.108856,167.475082 
	C149.005264,168.307785 151.149979,170.331787 152.083878,170.231049 
	C157.343643,169.663742 158.883804,171.918320 158.388489,176.847092 
	C158.044067,180.274292 160.964050,179.632446 163.007950,179.657883 
	C165.106384,179.684006 167.924637,180.085953 167.401093,176.663666 
	C166.504562,170.802917 169.597260,169.794830 174.344543,170.350769 
	C174.804794,170.404663 175.297195,170.184082 176.123398,170.022858 
	C176.281281,168.812592 176.722824,167.510071 176.563080,166.286011 
	C175.926422,161.407776 178.674789,160.322189 182.519470,161.236679 
	C183.917480,161.569199 185.680084,163.297745 185.982376,164.673645 
	C186.541321,167.217682 185.922806,169.994553 186.196411,172.632767 
	C186.703491,177.522385 185.941940,180.820770 179.759232,180.052658 
	C178.932831,179.949966 176.912048,182.578430 176.923721,183.929352 
	C176.956131,187.679489 176.065338,189.713333 171.864075,189.089981 
	C168.523163,188.594254 167.576355,190.406494 167.579987,193.509399 
	C167.631104,237.171402 167.641693,280.833557 167.556854,324.495453 
	C167.549927,328.063293 168.911972,329.425323 172.294128,328.929230 
	C175.944290,328.393829 177.169159,330.183929 176.740189,333.505402 
	C176.228180,337.469940 178.262848,338.207703 181.742691,338.137817 
	C190.904694,337.953796 200.076614,337.923615 209.236694,338.150421 
	C212.896835,338.241089 214.605698,337.206146 214.073349,333.396851 
	C213.576294,329.840118 215.285278,328.472656 218.687897,328.944855 
	C222.239441,329.437775 223.643616,327.821594 223.202011,324.397003 
	C222.727844,320.719879 224.204330,319.448425 227.979599,319.466614 
	C231.794449,319.485016 233.079453,320.915680 232.787155,324.508789 
	C232.612076,326.660950 232.553223,328.862030 232.796570,331.000824 
	C233.354874,335.907562 232.505432,339.160126 226.353119,338.402344 
	C225.520416,338.299774 223.497696,340.923370 223.503906,342.277863 
	C223.520889,345.975403 222.740829,348.107056 218.497391,347.478455 
	C215.259903,346.998901 213.794357,348.555756 214.191177,351.784760 
	C214.657043,355.575470 213.364395,357.515289 209.229004,356.941437 
	C206.004196,356.493927 204.510818,358.089081 204.891113,361.286774 
	C205.367462,365.291931 203.580215,366.785278 199.713196,366.326111 
	C196.348816,365.926544 195.096039,367.761780 195.561783,370.822357 
	C196.224762,375.179291 193.882614,375.945709 190.312897,375.653107 
	C188.492035,375.503876 186.640182,375.513489 184.817276,375.650330 
	C179.825165,376.025116 175.276627,376.119507 176.371399,368.788544 
	C176.464569,368.164581 173.874725,366.383118 172.603775,366.453217 
	C168.682922,366.669495 166.924103,365.337616 167.468964,361.344727 
	C167.956558,357.771606 166.254852,356.543518 162.853683,356.884369 
	C161.038849,357.066193 159.185669,357.001953 157.358475,356.897278 
	C152.432266,356.615051 147.680389,356.297272 148.643631,363.761047 
	C148.728088,364.415497 145.846771,366.181335 144.355743,366.166290 
	C140.690430,366.129364 138.993423,367.354645 139.468323,371.545410 
z"/>
<path fill="#F7F7F7" opacity="1.000000" stroke="none" 
	d="
M475.071350,304.000671 
	C475.071777,314.164581 475.181274,323.830292 475.014709,333.491302 
	C474.955322,336.935883 476.068268,338.354401 479.607025,338.135132 
	C483.258240,337.908844 486.936859,338.169159 490.600037,338.078003 
	C493.906250,337.995728 493.836914,340.208832 493.792786,342.460815 
	C493.748505,344.721313 494.389343,347.677704 490.700409,347.363678 
	C486.047302,346.967529 483.786835,348.452545 484.391205,353.448151 
	C484.756561,356.468079 482.612946,357.122864 480.182678,356.874115 
	C476.220856,356.468658 474.643921,358.185486 475.059509,362.069733 
	C475.405029,365.298737 473.883209,366.737793 470.650635,366.296051 
	C466.886078,365.781616 465.379944,367.513397 465.855927,371.146759 
	C466.319824,374.687531 464.765594,375.798767 461.305115,375.676239 
	C454.981567,375.452332 448.641205,375.492706 442.314178,375.661072 
	C438.954376,375.750519 437.362457,374.733856 437.672119,371.114471 
	C437.926788,368.137268 437.542999,365.107452 437.764496,362.124878 
	C438.048035,358.307220 436.746094,356.521576 432.688507,356.849121 
	C429.543335,357.103027 426.357056,356.798401 423.196564,356.927002 
	C420.326874,357.043793 418.820831,356.147339 418.977051,352.968445 
	C419.156738,349.311646 419.149109,345.633240 418.979370,341.975494 
	C418.831970,338.799255 420.336060,337.937256 423.213745,338.052307 
	C426.873383,338.198608 430.584686,338.394073 434.187317,337.916687 
	C435.490845,337.743958 437.555115,335.697815 437.564392,334.493347 
	C437.760590,309.002289 437.696106,283.509277 437.735321,258.016754 
	C437.739716,255.147934 436.350739,254.285690 433.706848,254.303879 
	C424.043457,254.370361 414.378601,254.394684 404.715881,254.290848 
	C401.750122,254.258972 400.561707,255.313736 400.570190,258.358734 
	C400.640137,283.517883 400.649597,308.677521 400.559753,333.836548 
	C400.547943,337.146759 401.845856,338.506775 404.996002,338.065521 
	C409.107239,337.489624 410.374695,339.402649 409.980804,343.214142 
	C409.776337,345.192413 409.796631,347.222534 409.974335,349.206055 
	C410.406982,354.035004 410.033356,357.878815 403.452271,357.172241 
	C402.661255,357.087311 400.802734,359.828247 400.761993,361.296143 
	C400.665649,364.765930 399.847656,366.815002 395.925751,366.302887 
	C392.096375,365.802917 390.770935,367.731567 391.222687,371.283875 
	C391.627930,374.470245 390.416809,375.779053 387.054596,375.672699 
	C380.562958,375.467346 374.057526,375.498932 367.563324,375.658142 
	C364.318848,375.737640 363.209503,374.540314 363.199860,371.287720 
	C363.186218,366.718628 364.231232,360.677673 361.805969,358.025116 
	C359.665802,355.684326 353.384796,356.885254 348.940948,356.971954 
	C345.363983,357.041718 344.432465,355.611053 344.381836,352.236481 
	C344.171387,338.209656 344.080048,338.074188 357.922577,338.172333 
	C361.935608,338.200745 363.404388,337.223999 363.369965,332.923645 
	C363.175140,308.598907 363.181854,284.271118 363.363312,259.946167 
	C363.395966,255.569748 362.067383,254.191574 357.679138,254.233826 
	C344.292816,254.362732 344.423706,254.198608 344.368835,240.986145 
	C344.352081,236.955078 345.464874,234.997864 349.722351,235.507812 
	C352.650940,235.858597 354.198822,234.527893 353.849365,231.482941 
	C353.408813,227.644958 354.855225,225.790710 358.886353,226.305283 
	C362.499146,226.766449 363.698608,224.885147 363.275635,221.563049 
	C362.835175,218.103455 364.285217,216.813339 367.804657,216.932648 
	C374.128906,217.147079 380.469360,217.121460 386.795532,216.937698 
	C389.956116,216.845871 391.640625,217.782349 391.210632,221.140594 
	C390.727509,224.913986 392.001495,226.902161 396.120789,226.326965 
	C399.726868,225.823410 400.992249,227.705475 400.593933,231.020599 
	C400.161499,234.619690 401.883240,235.815292 405.247620,235.555893 
	C407.235168,235.402634 409.250793,235.425385 411.242401,235.550369 
	C415.895569,235.842392 420.105194,235.906815 419.276520,229.097839 
	C419.185547,228.350662 421.969238,226.468597 423.414429,226.474167 
	C427.016296,226.487991 428.852844,225.449799 428.303070,221.620483 
	C427.739563,217.695755 429.761047,216.867233 433.266846,216.933456 
	C442.594147,217.109634 451.929718,217.122894 461.256165,216.924973 
	C464.714233,216.851578 466.306061,217.925278 465.846832,221.448303 
	C465.371704,225.093140 466.828217,226.833298 470.601501,226.314987 
	C474.230072,225.816589 475.448975,227.644989 475.067780,230.970718 
	C474.668762,234.451385 476.179138,235.794861 479.658569,235.570709 
	C482.976929,235.356888 486.326660,235.660309 489.650757,235.496216 
	C492.628723,235.349182 493.703613,236.474335 493.855560,239.506805 
	C494.584442,254.051529 494.661926,254.186630 480.066315,254.239685 
	C476.012512,254.254425 474.966156,255.722214 475.007446,259.514587 
	C475.167053,274.175110 475.071869,288.838409 475.071350,304.000671 
z"/>
<path fill="#F7F7F7" opacity="1.000000" stroke="none" 
	d="
M307.376526,278.000366 
	C307.376556,296.490601 307.500671,314.482239 307.287262,332.469910 
	C307.235748,336.808929 308.446198,338.664246 312.912750,338.136993 
	C315.212738,337.865509 317.571808,338.057159 319.903137,338.098053 
	C322.787659,338.148651 325.963654,337.223236 326.056000,342.195251 
	C326.135498,346.476105 324.639404,347.912018 320.582672,347.474304 
	C317.836975,347.178101 316.503387,348.666229 316.789734,351.374084 
	C317.208954,355.338135 315.893890,357.433044 311.548706,356.924377 
	C308.191864,356.531403 307.059387,358.441193 307.386536,361.489624 
	C307.780029,365.156006 306.287445,366.832153 302.535736,366.296936 
	C298.989868,365.791016 297.560730,367.474304 298.014221,370.873474 
	C298.512909,374.611633 296.996979,375.855896 293.244629,375.685089 
	C287.094025,375.405182 280.913055,375.411530 274.761169,375.676270 
	C270.735809,375.849518 269.420929,374.320648 269.749756,370.440460 
	C270.030060,367.133087 270.137695,363.730011 269.632538,360.476288 
	C269.425110,359.140259 267.534943,357.270172 266.191864,357.063782 
	C262.936890,356.563568 259.541992,356.721832 256.225372,356.942932 
	C252.626312,357.182892 251.261459,356.004303 251.241531,352.171967 
	C251.169205,338.266968 251.036499,338.117950 264.828094,338.182770 
	C268.845612,338.201630 269.904907,336.894104 269.881592,333.023407 
	C269.734222,308.537628 269.719177,284.049957 269.890594,259.564484 
	C269.920349,255.312134 268.456665,254.207169 264.395599,254.239075 
	C251.156403,254.343018 251.295197,254.200409 251.244781,240.882477 
	C251.229218,236.771805 252.469925,235.005661 256.669220,235.494110 
	C258.641418,235.723526 260.670471,235.418350 262.659729,235.556824 
	C267.069611,235.863800 270.723206,235.667923 270.057526,229.475052 
	C269.962524,228.591309 272.867096,226.527054 274.412720,226.496582 
	C278.077057,226.424377 279.739899,225.234070 279.243225,221.501892 
	C278.772522,217.965271 280.419891,216.679672 283.847931,216.960449 
	C286.164368,217.150162 288.533112,217.209351 290.836151,216.950378 
	C295.736816,216.399323 299.014496,217.214737 298.192505,223.373749 
	C298.083862,224.187988 300.456696,226.212372 301.608643,226.158035 
	C305.769226,225.961777 308.051544,227.020905 307.402130,231.681137 
	C306.955139,234.888641 308.843536,235.660706 311.651581,235.556946 
	C314.978455,235.433990 318.316986,235.627228 321.643951,235.505737 
	C324.486633,235.401917 326.064148,236.284958 325.955383,239.441940 
	C325.823578,243.268631 325.809784,247.107941 325.963409,250.933014 
	C326.072906,253.659668 324.763214,254.401047 322.342346,254.341507 
	C319.012878,254.259598 315.660461,254.550217 312.353241,254.267548 
	C308.256866,253.917419 307.145813,255.677856 307.309418,259.513123 
	C307.564758,265.498901 307.376831,271.503662 307.376526,278.000366 
z"/>
<path fill="#F6F6F6" opacity="1.000000" stroke="none" 
	d="
M301.574219,151.682632 
	C306.151398,151.050232 307.581909,152.767136 307.465912,156.945145 
	C307.212128,166.087326 307.271545,175.243576 307.445648,184.389465 
	C307.511078,187.828400 306.388641,189.126740 302.871033,189.062851 
	C293.392242,188.890686 283.906921,188.908707 274.427155,189.050400 
	C271.094208,189.100189 269.644409,188.169357 269.727142,184.536026 
	C269.939148,175.225311 269.903381,165.904694 269.743073,156.591888 
	C269.680359,152.947540 270.956329,151.546967 274.676575,151.625595 
	C283.489136,151.811874 292.308319,151.683609 301.574219,151.682632 
z"/>
</svg>