<svg version="1.1" id="Layer_1" xmlns="http://www.w3.org/2000/svg" xmlns:xlink="http://www.w3.org/1999/xlink" x="0px" y="0px"
	 width="100%" viewBox="0 0 512 512" enable-background="new 0 0 512 512" xml:space="preserve">
<path fill="#FEFEFE" opacity="1.000000" stroke="none" 
	d="
M236.000000,513.000000 
	C157.352402,513.000000 79.204803,513.000000 1.028605,513.000000 
	C1.028605,342.394043 1.028605,171.788086 1.028605,1.091059 
	C171.564285,1.091059 342.128632,1.091059 512.846497,1.091059 
	C512.846497,171.666565 512.846497,342.333252 512.846497,513.000000 
	C420.788055,513.000000 328.644012,513.000000 236.000000,513.000000 
M198.135818,369.729309 
	C198.407669,367.328339 197.055481,363.669830 201.562820,364.198456 
	C206.660141,364.796234 208.085739,362.514740 207.486694,357.929169 
	C207.367386,357.015869 207.766403,356.034821 208.002090,354.635773 
	C209.814301,354.635773 211.615158,355.078461 213.006866,354.513397 
	C214.447311,353.928558 216.601395,352.277130 216.518967,351.246124 
	C216.125244,346.322144 218.076126,344.580078 222.797211,345.238312 
	C223.665359,345.359375 224.621506,344.849213 226.004196,344.518738 
	C223.783539,336.344727 228.516876,335.015106 235.368347,336.014252 
	C235.368347,330.865662 235.209778,326.389557 235.419174,321.930725 
	C235.582687,318.448883 234.247345,317.230499 230.784042,317.210144 
	C227.381714,317.190125 225.198013,317.748779 225.736160,321.807343 
	C226.197617,325.287506 224.977859,327.315582 221.070023,326.787842 
	C217.576645,326.316101 216.090530,327.844299 216.603714,331.335480 
	C217.173157,335.209320 215.276108,336.149994 211.690811,336.038483 
	C204.366196,335.810699 197.029510,335.971222 189.697800,335.971405 
	C180.357422,335.971649 180.357422,335.971466 178.614182,327.133850 
	C177.425797,327.024445 176.108749,326.681000 174.849243,326.828644 
	C170.976318,327.282593 170.071762,325.453674 170.078934,321.888916 
	C170.166580,278.398743 170.162598,234.908264 170.081635,191.418045 
	C170.075485,188.112946 170.824860,186.237503 174.498474,186.773087 
	C178.162201,187.307236 179.800705,185.872421 179.321182,182.060547 
	C179.164795,180.817413 179.528748,179.508820 179.645401,178.324814 
	C188.674911,176.492752 188.674973,176.492752 188.674789,166.922806 
	C188.674759,165.423141 188.565521,163.914032 188.695053,162.425690 
	C188.998856,158.934906 186.812729,158.710541 184.231857,158.812531 
	C181.762390,158.910110 178.698959,158.331528 179.223434,162.337357 
	C179.870285,167.278152 177.785446,168.975204 173.078995,168.326752 
	C172.196747,168.205185 171.225220,168.731598 170.373245,168.939835 
	C169.529678,178.359680 168.711578,179.033508 161.107971,176.571655 
	C160.961395,174.064743 160.810257,171.479614 160.652496,168.781418 
	C159.527313,168.577286 158.692368,168.209488 157.928391,168.322296 
	C152.955307,169.056595 150.818237,167.206360 151.381363,162.009399 
	C151.483521,161.066681 149.635773,159.056076 148.597656,158.991394 
	C143.503555,158.673965 138.378860,158.847366 132.517410,158.847366 
	C134.293549,166.647537 131.293777,169.980789 123.977921,168.339584 
	C122.363762,178.165161 122.363762,178.165161 114.748314,176.990936 
	C114.611664,175.806992 114.187454,174.489990 114.367668,173.261658 
	C114.965744,169.185089 113.170097,167.746918 109.330200,168.268936 
	C105.708153,168.761337 104.438332,166.939041 104.858681,163.616196 
	C105.329399,159.895157 103.803856,158.395020 100.068253,158.788452 
	C97.635048,159.044708 94.944534,158.899963 95.504715,155.382965 
	C96.395271,149.791855 93.516624,148.799255 88.928078,149.354919 
	C88.173386,149.446320 87.361031,149.061462 86.489967,148.878815 
	C86.256645,145.965424 86.036919,143.221817 85.789551,140.133041 
	C77.891502,140.133041 70.411812,140.133041 62.932125,140.133041 
	C55.330208,140.133041 47.728287,140.133041 40.133022,140.133041 
	C39.871639,141.382141 39.555252,142.045197 39.632629,142.658585 
	C40.252384,147.571625 38.852856,150.281311 33.184208,149.607437 
	C32.318638,149.504532 30.259050,152.064560 30.265905,153.385071 
	C30.286646,157.380035 29.096619,159.412964 24.806658,158.837051 
	C21.455582,158.387177 20.432629,160.097672 20.607218,163.259232 
	C20.809042,166.914047 20.492147,170.600327 20.756184,174.247208 
	C20.839617,175.399551 21.846041,177.152435 22.806746,177.462173 
	C27.851171,179.088638 30.075430,177.328125 30.283173,172.041809 
	C30.326199,170.946884 30.616816,169.861694 30.776566,168.875488 
	C33.706615,168.450653 37.262585,168.959534 38.621033,167.467545 
	C40.168240,165.768250 39.754749,162.283752 40.186119,159.620361 
	C47.353420,158.310883 47.353420,158.310883 49.521893,168.049118 
	C52.181664,168.287613 54.918205,168.532974 58.314346,168.837494 
	C55.556499,177.740509 61.166451,178.384491 67.191963,177.906219 
	C67.889221,185.629562 67.889221,185.629562 76.761856,187.559845 
	C74.764687,195.141205 78.811371,197.487854 85.563812,196.444839 
	C86.705925,204.657654 86.705925,204.657654 94.907829,206.354355 
	C94.907829,209.025192 94.907829,211.718536 94.907829,214.538696 
	C93.875938,214.680984 93.237038,214.844482 92.597755,214.845963 
	C82.433464,214.869507 72.268372,214.943939 62.105305,214.834946 
	C59.164440,214.803421 57.826927,215.657990 58.031460,218.813812 
	C58.257294,222.298447 58.223824,225.816147 58.043114,229.305969 
	C57.886242,232.335403 59.046169,233.467850 62.081657,233.397415 
	C68.410172,233.250595 74.744484,233.353516 81.076416,233.353561 
	C95.999611,233.353653 95.916397,233.350632 95.390915,248.125900 
	C95.283066,251.158234 94.319420,252.224030 91.302574,252.150223 
	C84.807930,251.991348 78.306656,252.104050 71.808098,252.104279 
	C57.884811,252.104782 58.057106,252.105377 57.979881,265.867126 
	C57.956577,270.019745 59.455025,270.962982 63.217236,270.874451 
	C71.877190,270.670746 80.555763,271.065521 89.205750,270.708191 
	C93.903488,270.514099 95.587654,271.745026 95.441689,276.712250 
	C95.089447,288.699249 95.453140,300.705658 95.254700,312.699707 
	C95.192062,316.484924 96.514175,317.586212 100.174828,317.496765 
	C109.000931,317.281158 117.847168,317.160889 126.662750,317.534271 
	C131.462830,317.737579 132.843277,316.327637 132.821426,311.451172 
	C132.630951,268.961456 132.711548,226.470490 132.711609,183.979904 
	C132.711609,182.039627 132.711624,180.099335 132.711624,178.074921 
	C139.253525,178.074921 145.134048,178.074921 151.115463,178.074921 
	C151.223114,179.307755 151.355835,180.119370 151.356018,180.931015 
	C151.367340,231.086563 151.330536,281.242218 151.441208,331.397522 
	C151.449936,335.349030 149.838135,336.049042 146.371750,336.029877 
	C125.043793,335.912018 103.714844,335.963837 82.386261,335.985046 
	C80.640091,335.986786 78.894119,336.181152 77.100647,336.288818 
	C76.943008,337.503723 76.707214,338.171600 76.799713,338.790405 
	C77.521324,343.617645 75.998337,346.035400 70.637680,345.279877 
	C67.346519,344.816040 67.609161,347.482971 67.520370,349.679901 
	C67.438065,351.716583 68.117661,354.825653 64.790108,354.358429 
	C57.730968,353.367188 57.641949,357.494385 58.052795,362.456268 
	C58.230949,364.607849 58.246136,366.800659 58.051914,368.949097 
	C57.733288,372.473602 59.232212,373.599060 62.673817,373.597717 
	C66.090813,373.596344 68.292023,372.986572 67.676735,368.957214 
	C67.116402,365.287781 68.578033,363.886230 72.370628,363.969757 
	C73.837822,364.002106 76.719688,362.102356 76.620163,361.427429 
	C75.506668,353.876343 80.367661,354.392120 85.200912,354.628143 
	C87.029518,354.717438 88.877632,354.775848 90.696472,354.616241 
	C94.018059,354.324646 95.873985,355.381561 95.328751,359.048706 
	C94.747444,362.958527 96.332550,364.447601 100.344475,364.282928 
	C101.749199,364.225281 104.562119,366.116913 104.464012,366.785645 
	C103.427223,373.852783 107.676140,373.887421 112.636726,373.552521 
	C115.954201,373.328552 119.299034,373.509949 122.631630,373.509949 
	C128.914032,373.509949 135.196442,373.509949 141.408188,373.509949 
	C141.710617,372.134888 142.042145,371.470978 141.961288,370.861786 
	C141.312012,365.970459 142.674179,363.220764 148.335922,363.953217 
	C149.257202,364.072418 151.461685,361.994354 151.348099,361.169312 
	C150.440216,354.573883 154.288010,354.170471 159.143005,354.612701 
	C161.126129,354.793335 163.152817,354.790588 165.136002,354.610474 
	C168.629395,354.293243 170.660355,355.282959 170.076233,359.250153 
	C169.546051,362.850922 170.940125,364.599365 174.775833,364.170227 
	C176.039871,364.028839 177.360016,364.389008 178.578873,364.512207 
	C179.109695,367.495209 179.463333,372.496155 180.089142,372.530457 
	C185.984940,372.853516 191.927658,372.337433 197.852448,371.988861 
	C197.969986,371.981964 198.034515,371.073975 198.135818,369.729309 
M477.594910,300.500122 
	C477.595154,285.840637 477.670471,271.180481 477.536865,256.522217 
	C477.507599,253.308228 478.466431,251.955841 481.786224,252.151169 
	C485.272461,252.356308 488.788788,252.043411 492.275909,252.240707 
	C495.259705,252.409515 496.550995,251.424271 496.387695,248.302795 
	C496.196472,244.647934 496.223602,240.969955 496.384583,237.312057 
	C496.514221,234.366119 495.548340,233.015045 492.403595,233.213516 
	C489.085144,233.422913 485.726685,233.049957 482.415680,233.311325 
	C478.680359,233.606171 477.135010,232.182953 477.586609,228.475769 
	C477.968262,225.342865 476.736938,223.640121 473.384674,224.123749 
	C469.341156,224.707077 467.930725,222.866623 468.326080,219.010010 
	C468.452332,217.778549 468.085052,216.496475 467.948029,215.277283 
	C455.479492,215.277283 443.401459,215.277283 430.674500,215.277283 
	C432.830566,223.297867 428.696991,225.292221 422.242462,224.240723 
	C420.646851,233.256653 420.646851,233.256668 411.557068,233.256592 
	C410.390961,233.256577 409.204681,233.117035 408.062439,233.282104 
	C404.390533,233.812775 402.768646,232.437943 403.192566,228.625519 
	C403.466034,226.166000 403.308502,223.625153 399.740234,224.148087 
	C394.803894,224.871521 393.063873,222.745880 393.702240,218.016006 
	C393.822479,217.125000 393.337250,216.152298 393.154083,215.320267 
	C383.995300,215.320267 375.100677,215.320267 365.932220,215.320267 
	C365.932220,217.072601 365.819275,218.405533 365.954712,219.712738 
	C366.280579,222.858261 365.152710,224.571442 361.792969,224.092789 
	C357.610077,223.496841 356.139252,225.250198 356.336029,229.400482 
	C356.394196,230.627823 354.464020,233.135788 353.742920,233.029816 
	C346.701263,231.994949 346.586426,236.219009 346.998749,241.187851 
	C347.190948,243.504318 347.161835,245.858017 347.006927,248.179749 
	C346.802216,251.246674 348.143219,252.326004 351.121185,252.235291 
	C355.888367,252.090088 360.663208,252.196426 364.931488,252.196426 
	C365.507935,253.112015 365.674042,253.252731 365.674500,253.393997 
	C365.763000,279.865509 365.878784,306.337219 365.774200,332.808044 
	C365.769989,333.866272 363.749237,335.704590 362.533661,335.825226 
	C358.573975,336.218231 354.530151,335.750916 350.566559,336.123779 
	C349.312500,336.241760 347.273895,337.889343 347.195984,338.954132 
	C346.834595,343.891998 347.036194,348.871033 347.036194,354.630127 
	C352.324036,354.630127 357.104919,354.727051 361.879456,354.594238 
	C364.808075,354.512848 366.157074,355.477600 365.980377,358.611481 
	C365.774384,362.264618 366.085510,365.946350 365.894592,369.601166 
	C365.731232,372.729095 367.043427,373.628723 370.012909,373.549530 
	C376.338745,373.380920 382.680237,373.304626 388.999512,373.568604 
	C392.768951,373.726044 394.276855,372.401245 393.758545,368.701874 
	C393.277649,365.269531 394.692902,363.685059 398.227753,364.097626 
	C401.733307,364.506805 403.745087,363.247681 403.219696,359.372711 
	C402.718872,355.679199 404.216827,354.315643 407.993134,354.480316 
	C409.459381,354.544312 412.222443,353.092072 412.297516,352.161316 
	C412.719147,346.935974 412.500702,341.658997 412.500702,336.292053 
	C409.151031,336.070557 406.547394,335.898376 404.017700,335.731110 
	C403.725739,335.009827 403.384888,334.559814 403.383759,334.108917 
	C403.318176,307.790863 403.242645,281.472534 403.388062,255.155457 
	C403.393494,254.164688 405.549316,252.359604 406.735840,252.331757 
	C416.559113,252.101242 426.391357,252.289261 436.218109,252.151245 
	C439.585205,252.103958 440.391266,253.527283 440.378967,256.652527 
	C440.281494,281.473694 440.265900,306.295746 440.389374,331.116669 
	C440.407318,334.723846 439.483276,336.301666 435.620148,336.049866 
	C431.166779,335.759583 426.679993,335.982422 421.920593,335.982422 
	C421.920593,342.343750 421.920593,348.237823 421.920593,354.626892 
	C426.542786,354.626892 430.845795,354.804749 435.126801,354.573792 
	C438.934204,354.368347 440.722809,355.585785 440.378021,359.654205 
	C440.111725,362.796509 440.455170,365.986084 440.299988,369.143433 
	C440.144104,372.315643 441.286865,373.653992 444.619080,373.553284 
	C450.943634,373.362152 457.285950,373.308136 463.605408,373.569946 
	C467.320648,373.723846 468.952972,372.530548 468.368469,368.767609 
	C467.758881,364.842957 469.792877,363.735687 473.286652,364.098114 
	C476.522186,364.433807 477.976349,362.910431 477.579407,359.705322 
	C477.090973,355.761627 478.777679,354.154968 482.702087,354.597015 
	C485.387756,354.899475 487.490784,354.169983 486.996124,350.856110 
	C486.268494,345.981506 488.624512,344.649994 492.987427,345.243042 
	C493.913147,345.368896 494.899048,345.052429 496.009094,344.921906 
	C496.009094,341.923370 496.009094,339.188446 496.009094,335.983643 
	C491.372253,335.983643 487.050079,335.744904 482.767395,336.053589 
	C478.816559,336.338379 477.450775,334.938080 477.531586,330.984772 
	C477.732422,321.160248 477.595825,311.328827 477.594910,300.500122 
M313.461670,354.638977 
	C321.758057,356.247803 318.473236,349.036652 320.027924,345.508759 
	C321.573151,345.425629 322.888153,345.380951 324.198517,345.277100 
	C325.492432,345.174469 326.781616,345.011963 327.981720,344.885376 
	C329.526093,336.111298 329.424744,335.982147 321.298798,335.977081 
	C319.466309,335.975952 317.602631,335.760284 315.807404,336.018890 
	C311.159088,336.688477 309.808472,334.781860 309.843475,330.204590 
	C310.029602,305.883881 310.010559,281.560425 309.848877,257.239349 
	C309.822906,253.332596 310.887634,252.092148 314.889557,252.110352 
	C328.866211,252.173920 328.770264,252.025696 328.650360,237.845673 
	C328.621857,234.476761 327.802521,232.876144 324.165680,233.200302 
	C321.356018,233.450745 318.482910,233.019333 315.679474,233.302216 
	C311.501068,233.723801 309.262604,232.548447 309.901154,227.900757 
	C310.274200,225.185532 308.972168,223.673218 306.160797,224.139069 
	C301.241852,224.954132 299.985168,222.538086 300.500366,218.206772 
	C300.610748,217.278610 300.243011,216.293579 300.087891,215.285309 
	C293.997772,215.285309 288.117554,215.285309 282.173553,215.285309 
	C282.031219,216.319122 281.787872,216.990372 281.876923,217.614166 
	C282.556885,222.377640 281.168549,224.996521 275.743591,224.150711 
	C272.605103,223.661377 272.126556,225.923416 272.409485,228.298874 
	C272.896057,232.383896 271.027863,233.596802 267.206238,233.301819 
	C263.894409,233.046173 260.530090,233.066086 257.224182,233.360077 
	C256.086426,233.461258 254.160583,234.711487 254.119370,235.514984 
	C253.842026,240.922577 253.974915,246.351212 253.974915,252.206650 
	C259.195618,252.206650 263.675598,252.339645 268.143280,252.161957 
	C271.359100,252.034058 272.459534,253.163605 272.443542,256.476257 
	C272.322876,281.464203 272.325958,306.453186 272.434753,331.441254 
	C272.449768,334.890137 271.387054,336.222473 267.860992,336.034393 
	C263.299896,335.791107 258.715973,335.975067 254.312408,335.975067 
	C254.312408,342.701904 254.312408,348.435150 254.312408,354.639008 
	C259.178650,354.639008 263.652313,354.765594 268.114807,354.596832 
	C271.379486,354.473419 272.608032,355.772827 272.419586,359.004730 
	C272.225952,362.325073 272.545166,365.675964 272.339264,368.994812 
	C272.118988,372.545593 273.622620,373.665863 277.042755,373.560455 
	C283.367188,373.365540 289.708069,373.336243 296.029907,373.568878 
	C299.539734,373.697998 301.032013,372.490417 300.534943,369.002747 
	C300.019653,365.387360 301.368042,363.595062 305.199829,364.112976 
	C309.030579,364.630707 310.041443,362.703217 310.074036,359.150940 
	C310.087830,357.647552 311.697937,356.158844 313.461670,354.638977 
M272.344757,182.158783 
	C271.910553,185.535156 273.183136,186.933716 276.783142,186.861755 
	C286.435791,186.668793 296.096405,186.694397 305.750458,186.847229 
	C309.016144,186.898911 310.134827,185.762863 310.082306,182.502701 
	C309.926727,172.848709 309.912872,163.188477 310.090302,153.535217 
	C310.153259,150.110077 308.730438,149.291397 305.622833,149.334671 
	C296.134674,149.466812 286.640656,149.514420 277.154877,149.312546 
	C273.401947,149.232666 272.202698,150.592773 272.280945,154.258423 
	C272.472687,163.244873 272.343903,172.238159 272.344757,182.158783 
z"/>
<path fill="#0A0A0A" opacity="1.000000" stroke="none" 
	d="
M198.129791,370.157837 
	C198.034515,371.073975 197.969986,371.981964 197.852448,371.988861 
	C191.927658,372.337433 185.984940,372.853516 180.089142,372.530457 
	C179.463333,372.496155 179.109695,367.495209 178.578873,364.512207 
	C177.360016,364.389008 176.039871,364.028839 174.775833,364.170227 
	C170.940125,364.599365 169.546051,362.850922 170.076233,359.250153 
	C170.660355,355.282959 168.629395,354.293243 165.136002,354.610474 
	C163.152817,354.790588 161.126129,354.793335 159.143005,354.612701 
	C154.288010,354.170471 150.440216,354.573883 151.348099,361.169312 
	C151.461685,361.994354 149.257202,364.072418 148.335922,363.953217 
	C142.674179,363.220764 141.312012,365.970459 141.961288,370.861786 
	C142.042145,371.470978 141.710617,372.134888 141.408188,373.509949 
	C135.196442,373.509949 128.914032,373.509949 122.631630,373.509949 
	C119.299034,373.509949 115.954201,373.328552 112.636726,373.552521 
	C107.676140,373.887421 103.427223,373.852783 104.464012,366.785645 
	C104.562119,366.116913 101.749199,364.225281 100.344475,364.282928 
	C96.332550,364.447601 94.747444,362.958527 95.328751,359.048706 
	C95.873985,355.381561 94.018059,354.324646 90.696472,354.616241 
	C88.877632,354.775848 87.029518,354.717438 85.200912,354.628143 
	C80.367661,354.392120 75.506668,353.876343 76.620163,361.427429 
	C76.719688,362.102356 73.837822,364.002106 72.370628,363.969757 
	C68.578033,363.886230 67.116402,365.287781 67.676735,368.957214 
	C68.292023,372.986572 66.090813,373.596344 62.673817,373.597717 
	C59.232212,373.599060 57.733288,372.473602 58.051914,368.949097 
	C58.246136,366.800659 58.230949,364.607849 58.052795,362.456268 
	C57.641949,357.494385 57.730968,353.367188 64.790108,354.358429 
	C68.117661,354.825653 67.438065,351.716583 67.520370,349.679901 
	C67.609161,347.482971 67.346519,344.816040 70.637680,345.279877 
	C75.998337,346.035400 77.521324,343.617645 76.799713,338.790405 
	C76.707214,338.171600 76.943008,337.503723 77.100647,336.288818 
	C78.894119,336.181152 80.640091,335.986786 82.386261,335.985046 
	C103.714844,335.963837 125.043793,335.912018 146.371750,336.029877 
	C149.838135,336.049042 151.449936,335.349030 151.441208,331.397522 
	C151.330536,281.242218 151.367340,231.086563 151.356018,180.931015 
	C151.355835,180.119370 151.223114,179.307755 151.115463,178.074921 
	C145.134048,178.074921 139.253525,178.074921 132.711624,178.074921 
	C132.711624,180.099335 132.711609,182.039627 132.711609,183.979904 
	C132.711548,226.470490 132.630951,268.961456 132.821426,311.451172 
	C132.843277,316.327637 131.462830,317.737579 126.662750,317.534271 
	C117.847168,317.160889 109.000931,317.281158 100.174828,317.496765 
	C96.514175,317.586212 95.192062,316.484924 95.254700,312.699707 
	C95.453140,300.705658 95.089447,288.699249 95.441689,276.712250 
	C95.587654,271.745026 93.903488,270.514099 89.205750,270.708191 
	C80.555763,271.065521 71.877190,270.670746 63.217236,270.874451 
	C59.455025,270.962982 57.956577,270.019745 57.979881,265.867126 
	C58.057106,252.105377 57.884811,252.104782 71.808098,252.104279 
	C78.306656,252.104050 84.807930,251.991348 91.302574,252.150223 
	C94.319420,252.224030 95.283066,251.158234 95.390915,248.125900 
	C95.916397,233.350632 95.999611,233.353653 81.076416,233.353561 
	C74.744484,233.353516 68.410172,233.250595 62.081657,233.397415 
	C59.046169,233.467850 57.886242,232.335403 58.043114,229.305969 
	C58.223824,225.816147 58.257294,222.298447 58.031460,218.813812 
	C57.826927,215.657990 59.164440,214.803421 62.105305,214.834946 
	C72.268372,214.943939 82.433464,214.869507 92.597755,214.845963 
	C93.237038,214.844482 93.875938,214.680984 94.907829,214.538696 
	C94.907829,211.718536 94.907829,209.025192 94.907829,206.354355 
	C86.705925,204.657654 86.705925,204.657654 85.563812,196.444839 
	C78.811371,197.487854 74.764687,195.141205 76.761856,187.559845 
	C67.889221,185.629562 67.889221,185.629562 67.191963,177.906219 
	C61.166451,178.384491 55.556499,177.740509 58.314346,168.837494 
	C54.918205,168.532974 52.181664,168.287613 49.521893,168.049118 
	C47.353420,158.310883 47.353420,158.310883 40.186119,159.620361 
	C39.754749,162.283752 40.168240,165.768250 38.621033,167.467545 
	C37.262585,168.959534 33.706615,168.450653 30.776566,168.875488 
	C30.616816,169.861694 30.326199,170.946884 30.283173,172.041809 
	C30.075430,177.328125 27.851171,179.088638 22.806746,177.462173 
	C21.846041,177.152435 20.839617,175.399551 20.756184,174.247208 
	C20.492147,170.600327 20.809042,166.914047 20.607218,163.259232 
	C20.432629,160.097672 21.455582,158.387177 24.806658,158.837051 
	C29.096619,159.412964 30.286646,157.380035 30.265905,153.385071 
	C30.259050,152.064560 32.318638,149.504532 33.184208,149.607437 
	C38.852856,150.281311 40.252384,147.571625 39.632629,142.658585 
	C39.555252,142.045197 39.871639,141.382141 40.133022,140.133041 
	C47.728287,140.133041 55.330208,140.133041 62.932125,140.133041 
	C70.411812,140.133041 77.891502,140.133041 85.789551,140.133041 
	C86.036919,143.221817 86.256645,145.965424 86.489967,148.878815 
	C87.361031,149.061462 88.173386,149.446320 88.928078,149.354919 
	C93.516624,148.799255 96.395271,149.791855 95.504715,155.382965 
	C94.944534,158.899963 97.635048,159.044708 100.068253,158.788452 
	C103.803856,158.395020 105.329399,159.895157 104.858681,163.616196 
	C104.438332,166.939041 105.708153,168.761337 109.330200,168.268936 
	C113.170097,167.746918 114.965744,169.185089 114.367668,173.261658 
	C114.187454,174.489990 114.611664,175.806992 114.748314,176.990936 
	C122.363762,178.165161 122.363762,178.165161 123.977921,168.339584 
	C131.293777,169.980789 134.293549,166.647537 132.517410,158.847366 
	C138.378860,158.847366 143.503555,158.673965 148.597656,158.991394 
	C149.635773,159.056076 151.483521,161.066681 151.381363,162.009399 
	C150.818237,167.206360 152.955307,169.056595 157.928391,168.322296 
	C158.692368,168.209488 159.527313,168.577286 160.652496,168.781418 
	C160.810257,171.479614 160.961395,174.064743 161.107971,176.571655 
	C168.711578,179.033508 169.529678,178.359680 170.373245,168.939835 
	C171.225220,168.731598 172.196747,168.205185 173.078995,168.326752 
	C177.785446,168.975204 179.870285,167.278152 179.223434,162.337357 
	C178.698959,158.331528 181.762390,158.910110 184.231857,158.812531 
	C186.812729,158.710541 188.998856,158.934906 188.695053,162.425690 
	C188.565521,163.914032 188.674759,165.423141 188.674789,166.922806 
	C188.674973,176.492752 188.674911,176.492752 179.645401,178.324814 
	C179.528748,179.508820 179.164795,180.817413 179.321182,182.060547 
	C179.800705,185.872421 178.162201,187.307236 174.498474,186.773087 
	C170.824860,186.237503 170.075485,188.112946 170.081635,191.418045 
	C170.162598,234.908264 170.166580,278.398743 170.078934,321.888916 
	C170.071762,325.453674 170.976318,327.282593 174.849243,326.828644 
	C176.108749,326.681000 177.425797,327.024445 178.614182,327.133850 
	C180.357422,335.971466 180.357422,335.971649 189.697800,335.971405 
	C197.029510,335.971222 204.366196,335.810699 211.690811,336.038483 
	C215.276108,336.149994 217.173157,335.209320 216.603714,331.335480 
	C216.090530,327.844299 217.576645,326.316101 221.070023,326.787842 
	C224.977859,327.315582 226.197617,325.287506 225.736160,321.807343 
	C225.198013,317.748779 227.381714,317.190125 230.784042,317.210144 
	C234.247345,317.230499 235.582687,318.448883 235.419174,321.930725 
	C235.209778,326.389557 235.368347,330.865662 235.368347,336.014252 
	C228.516876,335.015106 223.783539,336.344727 226.004196,344.518738 
	C224.621506,344.849213 223.665359,345.359375 222.797211,345.238312 
	C218.076126,344.580078 216.125244,346.322144 216.518967,351.246124 
	C216.601395,352.277130 214.447311,353.928558 213.006866,354.513397 
	C211.615158,355.078461 209.814301,354.635773 208.002090,354.635773 
	C207.766403,356.034821 207.367386,357.015869 207.486694,357.929169 
	C208.085739,362.514740 206.660141,364.796234 201.562820,364.198456 
	C197.055481,363.669830 198.407669,367.328339 198.129791,370.157837 
z"/>
<path fill="#070707" opacity="1.000000" stroke="none" 
	d="
M477.594818,301.000122 
	C477.595825,311.328827 477.732422,321.160248 477.531586,330.984772 
	C477.450775,334.938080 478.816559,336.338379 482.767395,336.053589 
	C487.050079,335.744904 491.372253,335.983643 496.009094,335.983643 
	C496.009094,339.188446 496.009094,341.923370 496.009094,344.921906 
	C494.899048,345.052429 493.913147,345.368896 492.987427,345.243042 
	C488.624512,344.649994 486.268494,345.981506 486.996124,350.856110 
	C487.490784,354.169983 485.387756,354.899475 482.702087,354.597015 
	C478.777679,354.154968 477.090973,355.761627 477.579407,359.705322 
	C477.976349,362.910431 476.522186,364.433807 473.286652,364.098114 
	C469.792877,363.735687 467.758881,364.842957 468.368469,368.767609 
	C468.952972,372.530548 467.320648,373.723846 463.605408,373.569946 
	C457.285950,373.308136 450.943634,373.362152 444.619080,373.553284 
	C441.286865,373.653992 440.144104,372.315643 440.299988,369.143433 
	C440.455170,365.986084 440.111725,362.796509 440.378021,359.654205 
	C440.722809,355.585785 438.934204,354.368347 435.126801,354.573792 
	C430.845795,354.804749 426.542786,354.626892 421.920593,354.626892 
	C421.920593,348.237823 421.920593,342.343750 421.920593,335.982422 
	C426.679993,335.982422 431.166779,335.759583 435.620148,336.049866 
	C439.483276,336.301666 440.407318,334.723846 440.389374,331.116669 
	C440.265900,306.295746 440.281494,281.473694 440.378967,256.652527 
	C440.391266,253.527283 439.585205,252.103958 436.218109,252.151245 
	C426.391357,252.289261 416.559113,252.101242 406.735840,252.331757 
	C405.549316,252.359604 403.393494,254.164688 403.388062,255.155457 
	C403.242645,281.472534 403.318176,307.790863 403.383759,334.108917 
	C403.384888,334.559814 403.725739,335.009827 404.017700,335.731110 
	C406.547394,335.898376 409.151031,336.070557 412.500702,336.292053 
	C412.500702,341.658997 412.719147,346.935974 412.297516,352.161316 
	C412.222443,353.092072 409.459381,354.544312 407.993134,354.480316 
	C404.216827,354.315643 402.718872,355.679199 403.219696,359.372711 
	C403.745087,363.247681 401.733307,364.506805 398.227753,364.097626 
	C394.692902,363.685059 393.277649,365.269531 393.758545,368.701874 
	C394.276855,372.401245 392.768951,373.726044 388.999512,373.568604 
	C382.680237,373.304626 376.338745,373.380920 370.012909,373.549530 
	C367.043427,373.628723 365.731232,372.729095 365.894592,369.601166 
	C366.085510,365.946350 365.774384,362.264618 365.980377,358.611481 
	C366.157074,355.477600 364.808075,354.512848 361.879456,354.594238 
	C357.104919,354.727051 352.324036,354.630127 347.036194,354.630127 
	C347.036194,348.871033 346.834595,343.891998 347.195984,338.954132 
	C347.273895,337.889343 349.312500,336.241760 350.566559,336.123779 
	C354.530151,335.750916 358.573975,336.218231 362.533661,335.825226 
	C363.749237,335.704590 365.769989,333.866272 365.774200,332.808044 
	C365.878784,306.337219 365.763000,279.865509 365.674500,253.393997 
	C365.674042,253.252731 365.507935,253.112015 364.931488,252.196426 
	C360.663208,252.196426 355.888367,252.090088 351.121185,252.235291 
	C348.143219,252.326004 346.802216,251.246674 347.006927,248.179749 
	C347.161835,245.858017 347.190948,243.504318 346.998749,241.187851 
	C346.586426,236.219009 346.701263,231.994949 353.742920,233.029816 
	C354.464020,233.135788 356.394196,230.627823 356.336029,229.400482 
	C356.139252,225.250198 357.610077,223.496841 361.792969,224.092789 
	C365.152710,224.571442 366.280579,222.858261 365.954712,219.712738 
	C365.819275,218.405533 365.932220,217.072601 365.932220,215.320267 
	C375.100677,215.320267 383.995300,215.320267 393.154083,215.320267 
	C393.337250,216.152298 393.822479,217.125000 393.702240,218.016006 
	C393.063873,222.745880 394.803894,224.871521 399.740234,224.148087 
	C403.308502,223.625153 403.466034,226.166000 403.192566,228.625519 
	C402.768646,232.437943 404.390533,233.812775 408.062439,233.282104 
	C409.204681,233.117035 410.390961,233.256577 411.557068,233.256592 
	C420.646851,233.256668 420.646851,233.256653 422.242462,224.240723 
	C428.696991,225.292221 432.830566,223.297867 430.674500,215.277283 
	C443.401459,215.277283 455.479492,215.277283 467.948029,215.277283 
	C468.085052,216.496475 468.452332,217.778549 468.326080,219.010010 
	C467.930725,222.866623 469.341156,224.707077 473.384674,224.123749 
	C476.736938,223.640121 477.968262,225.342865 477.586609,228.475769 
	C477.135010,232.182953 478.680359,233.606171 482.415680,233.311325 
	C485.726685,233.049957 489.085144,233.422913 492.403595,233.213516 
	C495.548340,233.015045 496.514221,234.366119 496.384583,237.312057 
	C496.223602,240.969955 496.196472,244.647934 496.387695,248.302795 
	C496.550995,251.424271 495.259705,252.409515 492.275909,252.240707 
	C488.788788,252.043411 485.272461,252.356308 481.786224,252.151169 
	C478.466431,251.955841 477.507599,253.308228 477.536865,256.522217 
	C477.670471,271.180481 477.595154,285.840637 477.594818,301.000122 
z"/>
<path fill="#090909" opacity="1.000000" stroke="none" 
	d="
M313.022095,354.651215 
	C311.697937,356.158844 310.087830,357.647552 310.074036,359.150940 
	C310.041443,362.703217 309.030579,364.630707 305.199829,364.112976 
	C301.368042,363.595062 300.019653,365.387360 300.534943,369.002747 
	C301.032013,372.490417 299.539734,373.697998 296.029907,373.568878 
	C289.708069,373.336243 283.367188,373.365540 277.042755,373.560455 
	C273.622620,373.665863 272.118988,372.545593 272.339264,368.994812 
	C272.545166,365.675964 272.225952,362.325073 272.419586,359.004730 
	C272.608032,355.772827 271.379486,354.473419 268.114807,354.596832 
	C263.652313,354.765594 259.178650,354.639008 254.312408,354.639008 
	C254.312408,348.435150 254.312408,342.701904 254.312408,335.975067 
	C258.715973,335.975067 263.299896,335.791107 267.860992,336.034393 
	C271.387054,336.222473 272.449768,334.890137 272.434753,331.441254 
	C272.325958,306.453186 272.322876,281.464203 272.443542,256.476257 
	C272.459534,253.163605 271.359100,252.034058 268.143280,252.161957 
	C263.675598,252.339645 259.195618,252.206650 253.974915,252.206650 
	C253.974915,246.351212 253.842026,240.922577 254.119370,235.514984 
	C254.160583,234.711487 256.086426,233.461258 257.224182,233.360077 
	C260.530090,233.066086 263.894409,233.046173 267.206238,233.301819 
	C271.027863,233.596802 272.896057,232.383896 272.409485,228.298874 
	C272.126556,225.923416 272.605103,223.661377 275.743591,224.150711 
	C281.168549,224.996521 282.556885,222.377640 281.876923,217.614166 
	C281.787872,216.990372 282.031219,216.319122 282.173553,215.285309 
	C288.117554,215.285309 293.997772,215.285309 300.087891,215.285309 
	C300.243011,216.293579 300.610748,217.278610 300.500366,218.206772 
	C299.985168,222.538086 301.241852,224.954132 306.160797,224.139069 
	C308.972168,223.673218 310.274200,225.185532 309.901154,227.900757 
	C309.262604,232.548447 311.501068,233.723801 315.679474,233.302216 
	C318.482910,233.019333 321.356018,233.450745 324.165680,233.200302 
	C327.802521,232.876144 328.621857,234.476761 328.650360,237.845673 
	C328.770264,252.025696 328.866211,252.173920 314.889557,252.110352 
	C310.887634,252.092148 309.822906,253.332596 309.848877,257.239349 
	C310.010559,281.560425 310.029602,305.883881 309.843475,330.204590 
	C309.808472,334.781860 311.159088,336.688477 315.807404,336.018890 
	C317.602631,335.760284 319.466309,335.975952 321.298798,335.977081 
	C329.424744,335.982147 329.526093,336.111298 327.981720,344.885376 
	C326.781616,345.011963 325.492432,345.174469 324.198517,345.277100 
	C322.888153,345.380951 321.573151,345.425629 320.027924,345.508759 
	C318.473236,349.036652 321.758057,356.247803 313.022095,354.651215 
z"/>
<path fill="#0F0F0F" opacity="1.000000" stroke="none" 
	d="
M272.344421,181.693741 
	C272.343903,172.238159 272.472687,163.244873 272.280945,154.258423 
	C272.202698,150.592773 273.401947,149.232666 277.154877,149.312546 
	C286.640656,149.514420 296.134674,149.466812 305.622833,149.334671 
	C308.730438,149.291397 310.153259,150.110077 310.090302,153.535217 
	C309.912872,163.188477 309.926727,172.848709 310.082306,182.502701 
	C310.134827,185.762863 309.016144,186.898911 305.750458,186.847229 
	C296.096405,186.694397 286.435791,186.668793 276.783142,186.861755 
	C273.183136,186.933716 271.910553,185.535156 272.344421,181.693741 
z"/>
</svg>